<svg width="70" height="73" viewBox="0 0 70 73" fill="none" xmlns="http://www.w3.org/2000/svg">
<path d="M48.4212 39.7254H20.9171C17.6812 39.7254 15.0233 42.2849 15.0233 45.4006C15.0233 48.5164 17.6814 51.0758 20.9171 51.0758H48.3054C51.5412 51.0758 54.1992 48.5163 54.1992 45.4006C54.3146 42.2842 51.6566 39.7254 48.4208 39.7254H48.4212Z" fill="#CF9D65"/>
<path d="M26.6946 16.3574H33.5131V17.5812H35.8242V16.3574H42.6427C43.2204 16.3574 43.7982 15.9122 43.7982 15.2446V8.56788C43.7982 5.45205 41.1402 3.00377 38.0198 3.00377L35.8242 3.00428V1.77989C35.8242 1.22353 35.2464 0.667175 34.6686 0.667175C33.9754 0.667175 33.513 1.11236 33.513 1.77989V3.00377H31.3173C28.0815 3.00377 25.5389 5.45205 25.5389 8.56788V15.2446C25.5389 15.9122 26.1167 16.3574 26.6945 16.3574H26.6946Z" fill="#CF9D65"/>
<path d="M42.7581 65.542C42.6426 65.0968 42.1803 64.7633 41.7179 64.7633L27.6186 64.7628C27.1562 64.7628 26.6939 65.0968 26.5785 65.5415L24.3828 71.4391C24.2673 71.7731 24.2673 72.1066 24.4982 72.4406C24.7291 72.7747 25.076 72.8858 25.4229 72.8858H43.9133C44.6066 72.8858 45.0689 72.4406 45.0689 71.7731C45.0689 71.5508 45.0689 71.3279 44.9535 71.2167L42.7581 65.542Z" fill="#CF9D65"/>
<path d="M30.6241 53.4134H38.7137V62.6497H30.6241V53.4134Z" fill="#CF9D65"/>
<path d="M6.93345 36.4979H8.08902C9.9378 36.4979 11.5557 35.0512 11.5557 33.048C11.5557 31.156 9.9378 29.7099 8.08902 29.7099H3.46669C1.50187 29.7099 0 31.1566 0 33.1597C0 34.9399 1.50242 36.4979 3.46669 36.4979H4.62226C5.08458 41.0604 8.32034 44.7325 12.7118 46.0676V45.4001C12.7118 44.8438 12.8273 44.2874 12.9427 43.731C9.70689 42.6183 7.39573 39.8365 6.93347 36.4979L6.93345 36.4979Z" fill="#CF9D65"/>
<path d="M65.8711 29.8224H61.2488C59.4 29.8224 57.7821 31.2691 57.7821 33.2722C57.7821 35.0525 59.4 36.6104 61.2488 36.6104H62.4044C61.9421 39.9485 59.6309 42.7308 56.5106 43.8435C56.6261 44.3998 56.7415 44.9562 56.7415 45.5126V46.1801C61.1329 44.8445 64.3687 41.1723 64.8311 36.6103H65.9867C67.9515 36.6103 69.4533 35.1636 69.4533 33.1605C69.3384 31.2685 67.836 29.8224 65.8712 29.8224L65.8711 29.8224Z" fill="#CF9D65"/>
<path d="M22.4194 37.4998H46.919C48.19 37.4998 49.2301 36.4983 49.2301 35.2744V25.2595C49.2301 22.4777 47.15 20.2517 44.3764 19.8071H24.9612C22.1877 20.2523 20.1074 22.4777 20.1074 25.2595V35.2744C20.1074 36.4982 21.1475 37.4998 22.4191 37.4998H22.4194Z" fill="#CF9D65"/>
</svg>
