<svg width="222" height="25" viewBox="0 0 222 25" fill="none" xmlns="http://www.w3.org/2000/svg">
<circle cx="83.4939" cy="12.5" r="12.5" fill="#CF9D65"/>
<path d="M78.1955 4.78163C77.4726 3.79463 78.1084 2.59101 79.2058 1.99033L83.4939 8.94179L87.782 1.99033C88.8793 2.59101 89.5151 3.79463 88.7922 4.78163L84.4476 10.4871L86.2796 13.4581C86.9288 13.1446 87.6775 13.0704 88.3809 13.2501C89.0844 13.4297 89.6926 13.8503 90.088 14.4306C90.4833 15.0109 90.6377 15.7096 90.5212 16.3915C90.4048 17.0735 90.0258 17.6903 89.4575 18.1226C88.8893 18.5549 88.1722 18.772 87.4449 18.732C86.7176 18.6919 86.0318 18.3975 85.5202 17.9057C85.0085 17.4139 84.7074 16.7597 84.675 16.0695C84.6426 15.3794 84.8812 14.7023 85.3447 14.1693L83.4939 11.7376L81.643 14.1682C82.1065 14.7012 82.3452 15.3782 82.3128 16.0684C82.2804 16.7586 81.9792 17.4128 81.4676 17.9046C80.9559 18.3964 80.2701 18.6908 79.5429 18.7309C78.8156 18.7709 78.0984 18.5538 77.5302 18.1215C76.962 17.6892 76.583 17.0724 76.4665 16.3904C76.3501 15.7085 76.5044 15.0098 76.8998 14.4295C77.2951 13.8492 77.9033 13.4286 78.6068 13.249C79.3103 13.0693 80.059 13.1435 80.7081 13.457L82.5402 10.4871L78.1955 4.78163ZM81.1391 15.9469C81.1391 15.5027 80.953 15.0767 80.6218 14.7626C80.2906 14.4485 79.8414 14.2721 79.373 14.2721C78.9046 14.2721 78.4553 14.4485 78.1241 14.7626C77.7929 15.0767 77.6068 15.5027 77.6068 15.9469C77.6068 16.391 77.7929 16.817 78.1241 17.1311C78.4553 17.4452 78.9046 17.6216 79.373 17.6216C79.8414 17.6216 80.2906 17.4452 80.6218 17.1311C80.953 16.817 81.1391 16.391 81.1391 15.9469ZM89.3809 15.9469C89.3809 15.5027 89.1948 15.0767 88.8636 14.7626C88.5324 14.4485 88.0832 14.2721 87.6148 14.2721C87.1464 14.2721 86.6972 14.4485 86.366 14.7626C86.0347 15.0767 85.8487 15.5027 85.8487 15.9469C85.8487 16.391 86.0347 16.817 86.366 17.1311C86.6972 17.4452 87.1464 17.6216 87.6148 17.6216C88.0832 17.6216 88.5324 17.4452 88.8636 17.1311C89.1948 16.817 89.3809 16.391 89.3809 15.9469Z" fill="#212121"/>
<path d="M0 20.6522V3.41086H2.86957V17.7587H17.2174V20.6522H0Z" fill="#FCF2E4"/>
<path d="M21.7919 20.6522C21.202 20.6522 20.66 20.5087 20.1658 20.2217C19.6716 19.9348 19.281 19.5442 18.9941 19.05C18.7071 18.5558 18.5636 18.0138 18.5636 17.4239V3.43477H21.4332V17.3282C21.4332 17.4558 21.473 17.5594 21.5528 17.6391C21.6484 17.7188 21.752 17.7587 21.8636 17.7587H32.4571C32.5687 17.7587 32.6643 17.7188 32.7441 17.6391C32.8397 17.5594 32.8875 17.4558 32.8875 17.3282V3.43477H35.781V17.4239C35.781 18.0138 35.6296 18.5558 35.3267 19.05C35.0397 19.5442 34.6491 19.9348 34.1549 20.2217C33.6767 20.5087 33.1426 20.6522 32.5528 20.6522H21.7919Z" fill="#FCF2E4"/>
<path d="M38.2231 20.6522V3.43477H41.0688V20.6522H38.2231Z" fill="#FCF2E4"/>
<path d="M43.4091 20.6522V17.4L56.5852 6.32825H43.4091V3.43477H60.6265V6.68694L47.4504 17.7587H60.6265V20.6522H43.4091Z" fill="#FCF2E4"/>
<path d="M106.561 20.6521V3.43475H119.857C120.447 3.43475 120.981 3.57823 121.459 3.86519C121.953 4.15215 122.344 4.54272 122.631 5.03693C122.933 5.53113 123.085 6.07316 123.085 6.66301V10.0826C123.085 10.3058 123.061 10.521 123.013 10.7282C122.981 10.9195 122.926 11.1029 122.846 11.2782C123.133 11.6768 123.356 12.0753 123.515 12.4739C123.691 12.8565 123.778 13.2471 123.778 13.6456V17.4239C123.778 18.0137 123.627 18.5558 123.324 19.05C123.037 19.5442 122.647 19.9348 122.152 20.2217C121.674 20.5087 121.14 20.6521 120.55 20.6521H106.561ZM109.861 17.7587H120.454C120.566 17.7587 120.662 17.7188 120.741 17.6391C120.837 17.5594 120.885 17.4558 120.885 17.3282V13.7652C120.885 13.6377 120.837 13.534 120.741 13.4543C120.662 13.3746 120.566 13.3348 120.454 13.3348H109.861C109.749 13.3348 109.646 13.3746 109.55 13.4543C109.47 13.534 109.431 13.6377 109.431 13.7652V17.3282C109.431 17.4558 109.47 17.5594 109.55 17.6391C109.646 17.7188 109.749 17.7587 109.861 17.7587ZM109.861 10.4413H119.737C119.865 10.4413 119.968 10.4014 120.048 10.3217C120.128 10.2261 120.168 10.1224 120.168 10.0108V6.75867C120.168 6.63113 120.128 6.52751 120.048 6.4478C119.968 6.36809 119.865 6.32823 119.737 6.32823H109.861C109.749 6.32823 109.646 6.36809 109.55 6.4478C109.47 6.52751 109.431 6.63113 109.431 6.75867V10.0108C109.431 10.1224 109.47 10.2261 109.55 10.3217C109.646 10.4014 109.749 10.4413 109.861 10.4413Z" fill="#FCF2E4"/>
<path d="M126.433 20.6521V6.66301C126.433 6.07316 126.577 5.53113 126.864 5.03693C127.151 4.54272 127.541 4.15215 128.036 3.86519C128.53 3.57823 129.072 3.43475 129.662 3.43475H140.423C141.012 3.43475 141.547 3.57823 142.025 3.86519C142.519 4.15215 142.91 4.54272 143.197 5.03693C143.499 5.53113 143.651 6.07316 143.651 6.66301V20.6521H140.757V14.7456H129.303V20.6521H126.433ZM129.303 11.8761H140.757V6.75867C140.757 6.63113 140.71 6.52751 140.614 6.4478C140.534 6.36809 140.439 6.32823 140.327 6.32823H129.733C129.622 6.32823 129.518 6.36809 129.423 6.4478C129.343 6.52751 129.303 6.63113 129.303 6.75867V11.8761Z" fill="#FCF2E4"/>
<path d="M160.293 20.6521L155.008 14.3391H158.762L163.521 19.9826V20.6521H160.293ZM146.375 20.6521V3.45867H160.365C160.954 3.45867 161.489 3.61012 161.967 3.91301C162.461 4.19997 162.852 4.59055 163.139 5.08475C163.441 5.56301 163.593 6.09707 163.593 6.68693V11.4217C163.593 11.9956 163.441 12.5297 163.139 13.0239C162.852 13.5181 162.461 13.9087 161.967 14.1956C161.489 14.4826 160.954 14.6261 160.365 14.6261L149.245 14.65V20.6521H146.375ZM149.675 11.7326H160.269C160.381 11.7326 160.476 11.6927 160.556 11.613C160.652 11.5333 160.699 11.4297 160.699 11.3021V6.75867C160.699 6.64707 160.652 6.55142 160.556 6.47171C160.476 6.37606 160.381 6.32823 160.269 6.32823H149.675C149.564 6.32823 149.46 6.37606 149.365 6.47171C149.285 6.55142 149.245 6.64707 149.245 6.75867V11.3021C149.245 11.4297 149.285 11.5333 149.365 11.613C149.46 11.6927 149.564 11.7326 149.675 11.7326Z" fill="#FCF2E4"/>
<path d="M166.18 20.6521V3.43475H179.476C180.066 3.43475 180.6 3.57823 181.078 3.86519C181.572 4.15215 181.963 4.54272 182.25 5.03693C182.553 5.53113 182.704 6.07316 182.704 6.66301V10.0826C182.704 10.3058 182.68 10.521 182.632 10.7282C182.6 10.9195 182.545 11.1029 182.465 11.2782C182.752 11.6768 182.975 12.0753 183.135 12.4739C183.31 12.8565 183.398 13.2471 183.398 13.6456V17.4239C183.398 18.0137 183.246 18.5558 182.943 19.05C182.656 19.5442 182.266 19.9348 181.771 20.2217C181.293 20.5087 180.759 20.6521 180.169 20.6521H166.18ZM169.48 17.7587H180.074C180.185 17.7587 180.281 17.7188 180.361 17.6391C180.456 17.5594 180.504 17.4558 180.504 17.3282V13.7652C180.504 13.6377 180.456 13.534 180.361 13.4543C180.281 13.3746 180.185 13.3348 180.074 13.3348H169.48C169.369 13.3348 169.265 13.3746 169.169 13.4543C169.09 13.534 169.05 13.6377 169.05 13.7652V17.3282C169.05 17.4558 169.09 17.5594 169.169 17.6391C169.265 17.7188 169.369 17.7587 169.48 17.7587ZM169.48 10.4413H179.356C179.484 10.4413 179.587 10.4014 179.667 10.3217C179.747 10.2261 179.787 10.1224 179.787 10.0108V6.75867C179.787 6.63113 179.747 6.52751 179.667 6.4478C179.587 6.36809 179.484 6.32823 179.356 6.32823H169.48C169.369 6.32823 169.265 6.36809 169.169 6.4478C169.09 6.52751 169.05 6.63113 169.05 6.75867V10.0108C169.05 10.1224 169.09 10.2261 169.169 10.3217C169.265 10.4014 169.369 10.4413 169.48 10.4413Z" fill="#FCF2E4"/>
<path d="M186.053 20.6521V3.43475H201.859V6.32823H188.946V10.6087H199.348V13.4782H188.946V17.7587H201.859V20.6521H186.053Z" fill="#FCF2E4"/>
<path d="M218.231 20.6521L212.946 14.3391H216.7L221.459 19.9826V20.6521H218.231ZM204.313 20.6521V3.45867H218.302C218.892 3.45867 219.426 3.61012 219.905 3.91301C220.399 4.19997 220.789 4.59055 221.076 5.08475C221.379 5.56301 221.531 6.09707 221.531 6.68693V11.4217C221.531 11.9956 221.379 12.5297 221.076 13.0239C220.789 13.5181 220.399 13.9087 219.905 14.1956C219.426 14.4826 218.892 14.6261 218.302 14.6261L207.183 14.65V20.6521H204.313ZM207.613 11.7326H218.207C218.318 11.7326 218.414 11.6927 218.494 11.613C218.589 11.5333 218.637 11.4297 218.637 11.3021V6.75867C218.637 6.64707 218.589 6.55142 218.494 6.47171C218.414 6.37606 218.318 6.32823 218.207 6.32823H207.613C207.502 6.32823 207.398 6.37606 207.302 6.47171C207.223 6.55142 207.183 6.64707 207.183 6.75867V11.3021C207.183 11.4297 207.223 11.5333 207.302 11.613C207.398 11.6927 207.502 11.7326 207.613 11.7326Z" fill="#FCF2E4"/>
</svg>
