<svg width="68" height="68" viewBox="0 0 68 68" fill="none" xmlns="http://www.w3.org/2000/svg">
<path d="M57.9166 54.6941L57.7859 54.6139H57.7853C57.2644 54.2946 56.5734 54.4419 56.2413 54.9436L52.2122 61.0299L51.079 60.2453L55.2604 53.9288V53.9283C55.4293 53.6876 55.4898 53.3915 55.4288 53.1068C55.3677 52.8222 55.1897 52.5739 54.9352 52.4178C54.6807 52.2612 54.3714 52.2107 54.0781 52.2772C53.7842 52.3437 53.5309 52.5217 53.3751 52.7706L49.261 58.9861L47.9018 58.0454L52.2179 51.5251C52.3806 51.2844 52.4365 50.9905 52.3737 50.7097C52.3104 50.4289 52.1329 50.1844 51.8818 50.03C51.6302 49.8756 51.3249 49.824 51.0339 49.8877C50.7423 49.9509 50.4901 50.1234 50.332 50.3674L46.0821 56.7862L44.4683 55.6691L48.91 48.9598C49.0783 48.7191 49.1382 48.4229 49.0766 48.1389C49.0155 47.8548 48.8375 47.6065 48.5836 47.4504C48.3291 47.2944 48.0204 47.2438 47.7271 47.3098C47.4338 47.3762 47.1804 47.5532 47.0246 47.8021L42.6504 54.4103L41.2906 53.4696L45.783 46.6833V46.6828C45.9514 46.4421 46.0113 46.146 45.9502 45.8619C45.8886 45.5778 45.7106 45.3295 45.4566 45.1734C45.2022 45.0174 44.8934 44.9668 44.6002 45.0328C44.3069 45.0993 44.0535 45.2767 43.8977 45.5251L39.472 52.2097L37.9861 51.1806L42.6082 44.198C42.777 43.9574 42.8375 43.6612 42.7765 43.3766C42.7149 43.0926 42.5368 42.8436 42.2829 42.6876C42.0284 42.5316 41.7191 42.4805 41.4253 42.5469C41.132 42.6134 40.8786 42.7915 40.7228 43.0404L36.1659 49.9217L34.68 48.8926L39.2644 41.9679V41.9674C39.4327 41.7267 39.4926 41.4305 39.4316 41.1465C39.3699 40.8624 39.1919 40.614 38.938 40.458C38.6835 40.302 38.3748 40.2514 38.0815 40.3174C37.7882 40.3838 37.5348 40.5613 37.3791 40.8097L32.8621 47.6334L31.4755 46.6735L36.07 39.7312C36.2292 39.4905 36.2829 39.1982 36.219 38.9197C36.1551 38.6405 35.9782 38.3977 35.7282 38.2438L35.5976 38.1636C33.7186 37.0108 31.3157 37.6312 30.0078 39.6076L25.929 45.7687C21.4177 44.1857 19.2756 40.9687 17.0143 37.5747C15.2842 34.9768 13.4947 32.2912 10.5902 30.5087C8.93431 29.4922 7.06846 29.0923 5.33774 29.3829V29.3834C3.54945 29.6889 1.98087 30.7131 1.02509 32.2004C0.0259462 33.7027 -0.259372 35.5444 0.2422 37.262C0.743202 38.9796 1.98257 40.4087 3.64815 41.1901C4.22333 41.484 18.0464 48.5528 23.4942 51.6918C29.0784 54.9105 43.1767 63.683 48.9789 67.3051C49.6585 67.732 50.4523 67.9594 51.2637 67.96C51.5679 67.96 51.8709 67.9281 52.1682 67.866C53.2683 67.6391 54.227 66.9952 54.829 66.0804L58.7856 60.1034V60.1029C59.3654 59.2699 59.6438 58.2771 59.5788 57.2764C59.4789 56.211 58.8627 55.2539 57.916 54.6946L57.9166 54.6941ZM9.21578 37.2269C8.72448 37.9692 7.9028 38.4489 6.99205 38.5253C6.08191 38.6022 5.18609 38.2665 4.56862 37.6176C3.95121 36.9681 3.68245 36.0796 3.84165 35.2131C4.00084 34.3461 4.56919 33.5999 5.37999 33.1939C6.19084 32.7879 7.15177 32.7681 7.97973 33.1401C8.80827 33.5126 9.4097 34.2346 9.60719 35.094C9.77551 35.8264 9.63457 36.594 9.21574 37.227L9.21578 37.2269Z" fill="#CF9D65"/>
<path d="M24.8534 23.1313C24.5704 23.0379 24.3381 22.8396 24.208 22.5802C24.0779 22.3209 24.0614 22.0225 24.1618 21.7511C24.7136 20.1834 24.4471 18.456 23.4457 17.1104C22.4448 15.7643 20.8316 14.9659 19.113 14.9642C18.6725 14.9653 18.2337 15.0192 17.8075 15.1247L17.4776 15.2334V15.234C17.4183 15.2532 17.3572 15.2675 17.2951 15.2769C17.1182 15.3389 16.9447 15.4098 16.7752 15.4895C15.5062 16.0873 14.5356 17.1466 14.0773 18.4335C13.6191 19.7209 13.7104 21.1303 14.3318 22.3527C14.9526 23.5747 16.0527 24.5093 17.3892 24.9511L61.0752 39.3745C63.6475 40.2234 66.2124 39.2486 67.2778 37.0975L24.8534 23.1313ZM22.297 21.1313C21.9775 21.8082 21.5535 22.3928 20.9293 22.7785C20.3883 23.1082 19.7612 23.2835 19.121 23.2835C18.1487 23.2802 17.2271 22.8648 16.6017 22.1483C15.9758 21.4318 15.7087 20.4868 15.8719 19.5637C16.0345 18.6406 16.6109 17.8334 17.4479 17.3566C18.2845 16.8791 19.2967 16.7807 20.2154 17.0868C21.9398 17.6555 22.7763 19.4697 22.297 21.1308L22.297 21.1313Z" fill="#CF9D65"/>
<path d="M7.11522 35.1353C6.83276 34.9622 6.46243 35.0051 6.23076 35.238C5.9991 35.471 5.97057 35.8293 6.16229 36.0935C6.35458 36.3578 6.71407 36.4545 7.02049 36.3249C7.32692 36.1946 7.49581 35.8743 7.42335 35.5595C7.3834 35.3842 7.27271 35.2314 7.11521 35.1353L7.11522 35.1353Z" fill="#CF9D65"/>
<path d="M64.8436 29.8915L42.9641 22.6678C42.5013 22.5047 41.9918 22.5157 41.537 22.6986C41.1205 22.8755 40.8026 23.2162 40.6634 23.6332C40.652 23.664 40.6394 23.6953 40.6252 23.7255L39.6848 25.7377L65.0672 34.0938L66.0595 31.9706H66.0601C66.1993 31.5695 66.16 31.1305 65.9511 30.7585C65.7086 30.3453 65.3137 30.036 64.8441 29.8915L64.8436 29.8915Z" fill="#CF9D65"/>
<path d="M66.2825 6.88323L65.7974 5.87114L40.6224 14.1882L40.9009 15.2602C41.233 16.1278 42.1876 16.5174 43.1873 16.1872L65.0653 8.95904C66.0622 8.62992 66.5672 7.76178 66.2825 6.88318L66.2825 6.88323Z" fill="#CF9D65"/>
<path d="M25.8553 16.7904L67.1792 3.138C66.1139 0.986884 63.5489 0.0121082 60.976 0.860993L22.489 13.5787C23.9418 14.271 25.1229 15.3974 25.855 16.7902L25.8553 16.7904Z" fill="#CF9D65"/>
<path d="M5.74209 23.0272L12.1479 22.9289H12.1473C11.4198 21.2799 11.3536 19.43 11.9613 17.7365C12.0925 17.3701 12.2529 17.014 12.4418 16.6717L5.95271 16.7332H5.91562C5.0848 16.7146 4.27969 17.0146 3.67829 17.5673C3.07686 18.1201 2.72765 18.88 2.70825 19.6805L2.70197 19.9392C2.68257 20.7365 2.99128 21.5079 3.56075 22.0866C4.13022 22.6651 4.91424 23.0036 5.74227 23.0272L5.74209 23.0272Z" fill="#CF9D65"/>
<path d="M19.4646 19.1239C19.0549 18.9882 18.6006 19.1036 18.3136 19.4162C18.0272 19.7289 17.9644 20.1772 18.155 20.5519C18.3456 20.9266 18.7519 21.1536 19.1838 21.1272C19.6163 21.1008 19.9895 20.8261 20.1293 20.4316C20.2229 20.1734 20.2047 19.8898 20.0803 19.6442C19.9553 19.3986 19.7333 19.2113 19.4646 19.1239L19.4646 19.1239Z" fill="#CF9D65"/>
</svg>
