<svg width="16" height="17" viewBox="0 0 16 17" fill="none" xmlns="http://www.w3.org/2000/svg">
<path fill-rule="evenodd" clip-rule="evenodd" d="M0 2.1464C0 1.34869 0.671573 0.702026 1.5 0.702026H2.64837C3.35142 0.702026 3.96014 1.17222 4.11265 1.83307L4.82887 4.93651C5.00105 5.68259 4.53984 6.42868 3.77667 6.63864L2.84388 6.89527C2.4331 7.00828 2.20107 7.42958 2.36396 7.80987C3.53001 10.5322 5.79126 12.7096 8.61841 13.8324C9.01335 13.9892 9.45087 13.7658 9.56824 13.3703L9.83475 12.4721C10.0528 11.7372 10.8276 11.2931 11.6024 11.4589L14.8254 12.1485C15.5117 12.2954 16 12.8815 16 13.5585V14.6643C16 15.462 15.3284 16.1087 14.5 16.1087H13C11.8514 16.1087 10.7366 15.9651 9.67424 15.6951C5.16665 14.5496 1.61908 11.1336 0.429492 6.7932C0.149131 5.77025 0 4.69673 0 3.59077V2.1464Z" fill="#CF9D65"/>
</svg>
