<svg width="66" height="73" viewBox="0 0 66 73" fill="none" xmlns="http://www.w3.org/2000/svg">
<path d="M25.7133 38.1002C24.0721 38.1002 22.5194 38.5934 21.2237 39.5271C19.6867 40.6338 18.7097 42.2259 18.4717 44.0102C18.2344 45.7946 18.765 47.5568 19.965 48.9728C21.358 50.6161 23.4562 51.5592 25.7212 51.5592C27.3631 51.5592 28.9159 51.0666 30.2129 50.1323C31.7492 49.0257 32.7269 47.4341 32.9642 45.6503C33.2015 43.8659 32.6709 42.1037 31.4709 40.687C30.0766 39.0432 27.979 38.1 25.7133 38.1V38.1002ZM26.6161 45.8901C25.9806 46.3479 25.0628 46.244 24.5668 45.6582C24.0701 45.0724 24.1829 44.2265 24.8184 43.7693C25.454 43.3115 26.3717 43.4154 26.8677 44.0012C27.3644 44.587 27.2516 45.4329 26.6161 45.8901Z" fill="#CF9D65"/>
<path d="M63.3965 17.232C62.8711 16.8685 62.1411 16.8823 61.6301 17.2452L31.6109 38.8716C31.976 39.154 32.3116 39.4905 32.6187 39.8539C34.0644 41.5493 34.6921 43.6763 34.4145 45.8157C54.3299 36.1934 64.7106 28.079 65.2663 21.6992C65.4853 19.3176 64.1855 17.7699 63.3975 17.2316L63.3965 17.232Z" fill="#CF9D65"/>
<path d="M25.7116 36.7605C26.6313 36.7605 27.5224 36.8951 28.3691 37.1372L33.6691 2.37584C33.7564 1.77023 33.4064 1.19166 32.8074 0.949545C32.6907 0.909291 32.0337 0.667175 31.0696 0.667175C29.9016 0.667175 28.1351 1.01683 26.3974 2.71293C21.6085 7.34276 19.608 19.3331 20.4548 38.3895C21.9742 37.3254 23.7993 36.7607 25.7117 36.7607L25.7116 36.7605Z" fill="#CF9D65"/>
<path d="M18.8199 49.8001C18.5136 49.4366 18.2359 49.0599 18.0019 48.6694L13.198 52.1281C13.563 52.4105 13.8987 52.747 14.2057 53.1105C14.5121 53.4739 14.7898 53.8506 15.0088 54.2412L19.8127 50.7824C19.462 50.5 19.1263 50.1636 18.82 49.8001H18.8199Z" fill="#CF9D65"/>
<path d="M25.1125 58.4685L25.9592 52.8966C25.8862 52.9099 25.7989 52.9099 25.7259 52.9099C24.8062 52.9099 23.9151 52.7753 23.0684 52.5332L22.2217 58.0912C22.309 58.078 22.382 58.078 22.47 58.078C22.8644 58.078 23.2731 58.105 23.6968 58.1591C24.1784 58.2264 24.6601 58.3207 25.1125 58.4685L25.1125 58.4685Z" fill="#CF9D65"/>
<path d="M7.29796 51.3535C5.65604 51.3535 4.10332 51.8468 2.80694 52.7804C1.27061 53.8877 0.292938 55.4792 0.0556554 57.2635C-0.182262 59.0479 0.34767 60.8101 1.54832 62.2262C2.94126 63.8694 5.03948 64.8125 7.30518 64.8125C8.94711 64.8125 10.4998 64.3193 11.7962 63.3857C14.968 61.1009 15.5318 56.864 13.0542 53.9399C11.6613 52.2966 9.56306 51.3535 7.29803 51.3535H7.29796ZM9.99851 61.2644C8.1448 62.597 5.2904 62.2677 3.85052 60.5687C2.36306 58.815 2.70201 56.2723 4.60531 54.9019C5.38294 54.3419 6.31435 54.0457 7.29803 54.0457C8.65771 54.0457 9.91698 54.6117 10.7533 55.5976C12.2401 57.3513 11.9012 59.894 9.99851 61.2644V61.2644Z" fill="#CF9D65"/>
<path d="M23.4872 59.4929C19.4636 58.9678 15.7919 61.6077 15.2424 65.2196C14.6818 68.8935 17.4691 72.3037 21.4555 72.8197C21.799 72.8642 22.1405 72.8858 22.4775 72.8858H22.4782C26.0925 72.8858 29.1979 70.3949 29.7003 67.0917C30.2609 63.4184 27.4736 60.0094 23.4872 59.4928L23.4872 59.4929ZM26.8089 66.7181C26.4797 68.8871 24.2693 70.4719 21.8616 70.1547C19.4694 69.8447 17.7976 67.7991 18.1338 65.5941C18.4356 63.6121 20.2966 62.1178 22.4632 62.1178C22.6672 62.1178 22.8732 62.1311 23.0804 62.1581C25.4726 62.4687 27.1451 64.5144 26.8089 66.7181L26.8089 66.7181Z" fill="#CF9D65"/>
</svg>
